<?xml version="1.0" encoding="UTF-8"?>
<svg id="Capa_2" data-name="Capa 2" xmlns="http://www.w3.org/2000/svg" viewBox="0 0 598.2 619">
  <defs>
    <style>
      .cls-1 {
        fill: #fff;
      }

      .cls-2, .cls-3 {
        fill: none;
        stroke: #c9c9c9;
        stroke-miterlimit: 10;
        stroke-width: 4px;
      }

      .cls-4 {
        fill: #bc2028;
      }

      .cls-3 {
        stroke-dasharray: 14.63 8;
      }
    </style>
  </defs>
  <g id="Capa_1-2" data-name="Capa 1">
    <g>
      <path class="cls-2" d="M236.39,265.75l60.29-94.99,2.39-3.77c3.02-4.76,9.32-6.17,14.08-3.15,1.16.74,2.16,1.7,2.94,2.83l2.86,4.15,25.95,37.69"/>
      <path class="cls-2" d="M285.7,188.06l.13,10.28s.05,2.12.94,3.02c.89.89,3.63.89,3.63.89h3.97c2.22,0,4.02-1.8,4.02-4.02v-2.68c0-2.22,1.8-4.02,4.02-4.02h.89c2.22,0,4.02,1.8,4.02,4.02s1.8,4.02,4.02,4.02h8.05c2.22,0,4.02-1.8,4.02-4.02v-5.37c0-2.22,1.8-4.02,4.02-4.02h1.34"/>
      <path class="cls-2" d="M325.52,242.5l18.63-32.36,4.36-7.56c1.81-3.14,5.82-4.22,8.96-2.41.89.51,1.65,1.23,2.22,2.09l5.24,8.01,21.1,32.24"/>
      <path class="cls-2" d="M369.87,217.81v2.9c0,1.17-.95,2.12-2.12,2.12h-7.32c-1.17,0-2.12-.95-2.12-2.12v-4.71c0-1.17-.95-2.12-2.12-2.12h-5.6c-1.17,0-2.12.95-2.12,2.12v1.13c0,1.17-.95,2.12-2.12,2.12h-4.11c-1.17,0-2.12-.95-2.12-2.12"/>
      <path class="cls-3" d="M404.57,60.96h-55.65c-6.17,0-11.18,5-11.18,11.18v21.46c0,6.17,5,11.18,11.18,11.18h60.81c6.17,0,11.18,5.01,11.18,11.18v13.41c0,6.17-5.01,11.18-11.18,11.18h-33.98c-6.17,0-11.18,5-11.18,11.18v4.47c0,6.17,5,11.18,11.18,11.18h21.46c6.17,0,11.18,5,11.18,11.18s-5,11.18-11.18,11.18h-4.47c-3.96,0-7.63,2.1-9.64,5.51"/>
      <path class="cls-2" d="M381.57,200.47c0,.15,0,.3,0,.45v4.92"/>
      <path class="cls-2" d="M498.72,169.17c-3.46,0-6.26,2.8-6.26,6.26v1.79c0,3.46-2.8,6.26-6.26,6.26h-33.08c-10.87,0-19.68-8.81-19.68-19.68v-25.03c0-6.42,5.21-11.63,11.63-11.63h0c3.46,0,6.26-2.8,6.26-6.26v-15.65c0-8.15,6.61-14.76,14.76-14.76h17.5c8.36,0,15.14,6.78,15.14,15.14v17.06c0,3.46,2.8,6.26,6.26,6.26h0c3.46,0,6.26,2.8,6.26,6.26v21.46c0,6.91-5.61,12.52-12.52,12.52h0Z"/>
      <line class="cls-2" x1="466.52" y1="124.45" x2="466.52" y2="219.25"/>
      <polyline class="cls-2" points="466.52 172.97 447.74 162.01 447.74 145.92"/>
      <polyline class="cls-2" points="466.52 152.62 482.62 141.45 482.62 128.03"/>
      <polyline class="cls-2" points="362.78 205.84 412.87 205.84 399.45 222.83 372.59 222.83"/>
      <polyline class="cls-2" points="415.1 204.95 426.28 222.83 426.28 243.4"/>
      <line class="cls-2" x1="399.45" y1="222.83" x2="399.45" y2="242.5"/>
      <line class="cls-2" x1="412.87" y1="233.56" x2="412.87" y2="243.4"/>
      <path class="cls-2" d="M530.02,357.87l2.08-1.86c2.52-1.57,5.74-1.44,8.12.34,1.92,1.44,4.55,1.52,6.56.18l.64-.43c2.4-1.6,5.58-1.41,7.77.47,1.51,1.29,3.69,1.43,5.35.32l.31-.21c2.92-1.95,6.78-1.72,9.45.57l1.75,1.5"/>
      <path class="cls-2" d="M400.03,245.05h34.67c3.75,0,6.78-3.04,6.78-6.78v-5.09c0-3.75,3.04-6.78,6.78-6.78h11.48c3.75,0,6.78-3.04,6.78-6.78s3.04-6.78,6.78-6.78h26.68c3.74,0,6.78,3.04,6.78,6.78v59.1l.03.8c.49,11.54,9.52,20.89,21.03,21.8l2.63.21h65.73"/>
      <path class="cls-2" d="M506.77,219.25h23.85c7.57,0,13.71,6.14,13.71,13.71v21.02c0,6.01,4.87,10.88,10.88,10.88h20.42"/>
      <path class="cls-2" d="M538.07,274.7l2.08-1.86c2.52-1.57,5.74-1.44,8.12.35,1.93,1.44,4.55,1.52,6.56.18l.64-.43c2.4-1.6,5.58-1.41,7.77.47,1.51,1.29,3.69,1.43,5.35.32l.31-.21c2.92-1.95,6.78-1.72,9.45.57l1.75,1.5"/>
      <path class="cls-2" d="M551.04,286.77l2.08-1.86c2.52-1.57,5.74-1.44,8.12.35,1.93,1.44,4.55,1.52,6.56.18l.64-.43c2.4-1.6,5.58-1.41,7.77.47,1.51,1.29,3.69,1.43,5.35.32l.31-.21c2.92-1.95,6.78-1.72,9.45.57l1.75,1.5"/>
      <path class="cls-2" d="M496.48,335.96l2.08-1.86c2.52-1.57,5.74-1.44,8.12.35,1.93,1.44,4.55,1.52,6.56.18l.64-.43c2.4-1.6,5.58-1.41,7.77.47,1.51,1.29,3.69,1.43,5.35.32l.31-.21c2.92-1.95,6.78-1.72,9.45.57l1.75,1.5"/>
      <path class="cls-2" d="M261.73,90.47v51.72c0,8.48-6.87,15.35-15.35,15.35h-30.85c-7.57,0-13.71,6.14-13.71,13.71v9.84c0,7.24,5.87,13.12,13.12,13.12h42.03c6.59,0,11.92,5.34,11.92,11.92v7.75"/>
      <line class="cls-2" x1="261.73" y1="117.6" x2="277.98" y2="101.35"/>
      <line class="cls-2" x1="261.73" y1="105.08" x2="253.98" y2="97.33"/>
      <path class="cls-2" d="M218.21,157.54v-15.35c0-4.86-3.94-8.79-8.79-8.79h-1.34c-4.94,0-8.94-4-8.94-8.94v-19.67"/>
      <path class="cls-2" d="M199.13,86c8.89,0,16.1,7.21,16.1,16.1s-7.21,16.1-16.1,16.1-16.1-7.21-16.1-16.1,7.21-16.1,16.1-16.1Z"/>
      <path class="cls-2" d="M259.53,68.52c-18.79,2.94-31.64,20.55-28.71,39.34,2.94,18.79,20.55,31.64,39.34,28.7,18.79-2.94,31.64-20.55,28.71-39.34-1.07-6.84-4.17-13.19-8.9-18.24l-.32-.29c8.55-6.29,10.39-18.32,4.1-26.87-6.29-8.55-18.32-10.39-26.87-4.1-6.48,4.76-9.31,13.06-7.09,20.79h-.26Z"/>
      <rect class="cls-2" x="538.34" y="172.13" width="16.44" height="16.44" transform="translate(32.56 439.3) rotate(-45)"/>
      <rect class="cls-2" x="389.6" y="461.96" width="10.75" height="10.75" transform="translate(-214.77 416.17) rotate(-45)"/>
      <rect class="cls-2" x="389.6" y="497.73" width="10.75" height="10.75" transform="translate(-240.07 426.65) rotate(-45)"/>
      <rect class="cls-2" x="389.6" y="533.51" width="10.75" height="10.75" transform="translate(-265.35 437.09) rotate(-45)"/>
      <rect class="cls-2" x="209.85" y="5.06" width="10.75" height="10.75" transform="translate(55.66 155.24) rotate(-45)"/>
      <rect class="cls-2" x="209.85" y="40.83" width="10.75" height="10.75" transform="translate(30.37 165.72) rotate(-45)"/>
      <rect class="cls-2" x="560.42" y="197.33" width="10.75" height="10.75" transform="translate(22.38 459.45) rotate(-45)"/>
      <rect class="cls-2" x="6.23" y="240.09" width="16.44" height="16.44" transform="translate(-171.35 82.95) rotate(-45)"/>
      <rect class="cls-2" x="560.56" y="152.47" width="10.75" height="10.75" transform="translate(54.14 446.41) rotate(-45)"/>
      <rect class="cls-2" x="86.44" y="117.74" width="10.75" height="10.75" transform="translate(-60.16 100.98) rotate(-45)"/>
      <rect class="cls-2" x="153.79" y="440.41" width="8.85" height="8.85" transform="translate(-268.21 242.16) rotate(-45)"/>
      <rect class="cls-2" x="145.25" y="431.87" width="25.93" height="25.93" transform="translate(-268.21 242.16) rotate(-45)"/>
      <polygon class="cls-2" points="64.98 295.71 64.98 315.61 45.09 315.61 64.98 295.71"/>
      <polygon class="cls-2" points="517.5 521.3 517.5 551.04 492.24 551.04 517.5 521.3"/>
      <polygon class="cls-2" points="342.22 122.55 342.22 135.19 329.58 135.19 342.22 122.55"/>
      <polygon class="cls-2" points="342.22 144.91 342.22 157.54 329.58 157.54 342.22 144.91"/>
      <path class="cls-2" d="M115.06,213.88v13.86c0,5.68,4.6,10.28,10.28,10.28h95.09c5.52,0,9.99,4.47,9.99,9.99v17.74"/>
      <line class="cls-2" x1="141" y1="218.36" x2="141" y2="238.03"/>
      <path class="cls-2" d="M149.05,219.25v2.09c0,3.79-3.07,6.86-6.86,6.86h-1.19"/>
      <path class="cls-2" d="M115.06,224.62h-15.5c-4.28,0-7.75-3.47-7.75-7.75v-11.03"/>
      <path class="cls-2" d="M115.06,175.43v4.92c0,3.21,2.6,5.81,5.81,5.81h9.69c1.81,0,3.28-1.47,3.28-3.28,0-3.62,2.94-6.56,6.56-6.56h18.93c3.7,0,6.71,3,6.71,6.71v30.41c0,1.24,1,2.24,2.24,2.24,2.22,0,4.02,1.8,4.02,4.02v23.1c0,7.24-5.87,13.12-13.12,13.12h-15.8c-2.8,0-5.07,2.27-5.07,5.07,0,5.1-4.14,9.24-9.24,9.24h-49.19c-6.75,0-12.22-5.47-12.22-12.22v-4.17c0-3.79-3.07-6.86-6.86-6.86h-9.84c-5.1,0-9.24-4.14-9.24-9.24v-34.58c0-5.93,4.8-10.73,10.73-10.73h5.17c6.04,0,10.93-4.89,10.93-10.93h0v-4.72c0-6.17,5-11.18,11.17-11.18h25.5c5.43,0,9.83,4.4,9.83,9.83h0Z"/>
      <path class="cls-2" d="M250.58,243.4v-13.4c0-5.93-4.81-10.75-10.75-10.75h-38.47c-7.16,0-12.97-5.81-12.97-12.97v-37.34c0-5.31-4.3-9.61-9.61-9.61h-26.16c-4.45,0-8.05-3.6-8.05-8.05v-5.37"/>
      <path class="cls-2" d="M170.51,331.04h-12.07c-3.21,0-5.81-2.6-5.81-5.81v-9.84c0-3.21-2.6-5.81-5.81-5.81h-55c-5.43,0-9.84,4.4-9.84,9.84v3.34c0,4.65-3.77,8.43-8.43,8.43H23.09"/>
      <path class="cls-2" d="M417.34,412.42h56.64c5.27,0,9.54,4.27,9.54,9.54v38.16c0,5.27,4.27,9.54,9.54,9.54h7.75c5.27,0,9.54,4.27,9.54,9.54v15.5"/>
      <path class="cls-2" d="M488.88,469.69v12.34c0,5.52-4.47,9.99-9.99,9.99h-25.64c-5.52,0-9.99,4.47-9.99,9.99v25.79"/>
      <path class="cls-2" d="M443.27,508.11h17.74c4.53,0,8.2,3.67,8.2,8.2v30.26"/>
      <path class="cls-2" d="M414.61,397.54h83.68c4.69,0,8.48,3.8,8.48,8.48v45.6c0,5.02,4.07,9.09,9.09,9.09h17.3c4.69,0,8.48,3.8,8.48,8.48v31.76"/>
      <path class="cls-2" d="M541.65,469.69h9.4c4.69,0,8.48,3.8,8.48,8.48v16.52"/>
      <path class="cls-2" d="M506.77,419.87h56.34c4.94,0,8.94-4,8.94-8.94v-9.24c0-4.94,4-8.94,8.94-8.94h6.26c4.94,0,8.94-4,8.94-8.94v-7.16"/>
      <path class="cls-2" d="M290.64,457.78v34.68c0,4.69-3.8,8.5-8.5,8.5h-55.74c-4.69,0-8.5-3.8-8.5-8.5v-4.47c0-4.69-3.8-8.5-8.5-8.5h-23.25c-4.69,0-8.5,3.8-8.5,8.5v71.54c0,4.69,3.8,8.5,8.5,8.5h110.89c4.69,0,8.5,3.8,8.5,8.49v23.7"/>
      <line class="cls-2" x1="257.85" y1="568.03" x2="257.85" y2="595.75"/>
      <path class="cls-2" d="M257.85,581.89h11.48c4.69,0,8.5,3.8,8.5,8.5v28.62"/>
      <path class="cls-2" d="M177.66,502.74h-14.76c-4.2,0-7.6,3.4-7.6,7.6v36.22"/>
      <path class="cls-2" d="M155.31,516.16h-4.92c-4.2,0-7.6,3.4-7.6,7.6v4.02"/>
      <path class="cls-2" d="M253.23,502.74v12.3c0,6.54-5.31,11.85-11.85,11.85h-37.34c-4.69,0-8.5,3.8-8.5,8.5v8.05c0,4.69,3.8,8.5,8.5,8.5h127.89c4.69,0,8.5,3.8,8.5,8.5v35.32"/>
      <path class="cls-2" d="M340.43,566.24h12.49c3.97,0,7.19,3.8,7.19,8.5v10.28"/>
      <path class="cls-2" d="M473.68,328.8v8.94c0,3.7,3,6.71,6.71,6.71h26.83c3.7,0,6.71,3,6.71,6.71v.89c0,3.7-3,6.71-6.71,6.71h-5.37c-3.71,0-6.71,3-6.71,6.71v4.47c0,3.7,3,6.71,6.71,6.71h11.63c3.7,0,6.71,3,6.71,6.71s3,6.71,6.71,6.71h25.93c3.7,0,6.71-3,6.71-6.71v-8.94c0-3.7,3-6.71,6.71-6.71h21.46c3.7,0,6.71-3,6.71-6.71v-11.63c0-3.7-3-6.71-6.71-6.71h-25.04c-3.7,0-6.71-3-6.71-6.71v-7.15c0-3.7-3-6.71-6.71-6.71h-68.86c-3.7,0-6.71,3-6.71,6.71Z"/>
      <path class="cls-2" d="M263.07,453.56h-32.19c-2.72,0-4.92,2.2-4.92,4.92v11.63c0,2.72,2.2,4.92,4.92,4.92s4.92,2.2,4.92,4.92v2.68c0,2.72,2.2,4.92,4.92,4.92h8.94c2.72,0,4.92-2.2,4.92-4.92v-4.47c0-2.72,2.2-4.92,4.92-4.92h3.58c2.72,0,4.92-2.2,4.92-4.92v-9.84c0-2.72-2.2-4.92-4.92-4.92Z"/>
      <path class="cls-2" d="M334.17,242.5h-56.99c-3.46,0-6.26,2.8-6.26,6.26,0,.08,0,.16,0,.24l.39,10.25c.13,3.45-2.56,6.36-6.01,6.5-.08,0-.16,0-.24,0h-48.94c-3.46,0-16.1,2.68-16.1,16.1s12.83,14.31,16.1,14.31c3.46,0,6.26,2.8,6.26,6.26v5.37c0,3.46-2.8,6.26-6.26,6.26h-24.15c-3.46,0-21.46-2.68-21.46,16.99s18.01,18.78,21.46,18.78h33.98c3.46,0,12.52.26,12.52,11.33,0,12.82-9.06,14.61-12.52,14.61h-10.73c-3.46,0-27.72.89-26.83,30.41.89,29.51,23.37,30.41,26.83,30.41h66.18c3.46,0,6.26,2.8,6.26,6.26v5.37c0,3.46,2.24,22.36,33.76,21.46,31.52-.89,32.42-18.01,32.42-21.46,0,0-.89-10.73,5.37-16.1,6.26-5.37,22.92-4.47,22.92-4.47h12.86c3.46,0,22.36,2.39,22.36-18.48s-18.9-20.87-22.36-20.87h-6.26c-3.46,0-17.89-3.28-17.89-19.08s14.43-17.59,17.89-17.59h39.35c3.46,0,26.83-.45,26.83-28.84s-23.37-28.39-26.83-28.39h-47.4c-3.46,0-9.84-4.47-8.94-11.63.89-7.16,5.49-8.94,8.94-8.94h14.31c3.46,0,9.84-4.47,9.84-16.99,0-8.94-6.38-14.31-9.84-14.31h-60.81Z"/>
      <path class="cls-2" d="M432.54,265.75h30.41c4.94,0,8.94,4,8.94,8.94s-4,8.94-8.94,8.94h-30.41c-4.94,0-8.94-4-8.94-8.94s4-8.94,8.94-8.94Z"/>
      <path class="cls-2" d="M160.23,354.29h7.16c6.17,0,11.18,5.01,11.18,11.18s-5,11.18-11.18,11.18h-7.16c-6.17,0-11.18-5-11.18-11.18s5.01-11.18,11.18-11.18Z"/>
      <rect class="cls-2" x="120.43" y="98.52" width="46.5" height="46.5" rx="11.92" ry="11.92"/>
      <path class="cls-2" d="M321.65,509.9h26.83c5.93,0,10.73,4.8,10.73,10.73s-4.81,10.73-10.73,10.73h-16.1c-5.93,0-10.73-4.8-10.73-10.73v-10.73Z"/>
      <path class="cls-2" d="M321.65,509.9s-7.38.03-9.84-3.58c-4.17-6.13-4.57-15.53-6.26-.89-1.51,13.12,15.2,13.41,15.2,13.41"/>
      <path class="cls-2" d="M338.79,509.9s7.01-4.47,5.22-12.52c-1.79-8.05,8.94,7.15,4.47,12.52"/>
      <circle class="cls-2" cx="333.72" cy="518.39" r="3.13"/>
      <polyline class="cls-2" points="359.21 520.63 349.37 520.63 349.37 516.16 344 516.16"/>
      <circle class="cls-2" cx="96.51" cy="476.14" r="10.51"/>
      <path class="cls-2" d="M126.69,487.99c3.21,0,5.81,2.6,5.81,5.81s-2.6,5.81-5.81,5.81-5.81-2.6-5.81-5.81,2.6-5.81,5.81-5.81Z"/>
      <rect class="cls-2" x="261.38" y="275.27" width="21.01" height="10.51" rx="4.5" ry="4.5"/>
      <path class="cls-1" d="M397.89,419.74h27.93c5.55,0,10.05,4.5,10.05,10.05v.78c0,5.55-4.5,10.05-10.05,10.05h-27.93c-5.55,0-10.05-4.5-10.05-10.05v-.78c0-5.55,4.5-10.05,10.05-10.05"/>
      <rect class="cls-2" x="387.84" y="419.74" width="48.03" height="20.88" rx="10.05" ry="10.05"/>
      <rect class="cls-2" x="218.23" y="388.22" width="12.01" height="12.01" rx="4.03" ry="4.03"/>
      <path class="cls-2" d="M23.09,365.7h19.89c6.84,0,12.38-5.54,12.38-12.38,0-3.73,3.03-6.76,6.76-6.76l62.77-.33c4.27-.02,7.75,3.42,7.78,7.7v4.27c0,4.15,3.36,7.51,7.51,7.51h7.51"/>
      <path class="cls-2" d="M178.45,365.7h15.76c5.8,0,10.51-4.7,10.51-10.51v-5.38"/>
      <path class="cls-2" d="M188.21,406.23h-59.17c-4.63,0-8.38,3.75-8.38,8.38h0v7.25c0,4.63-3.75,8.38-8.38,8.38h-38.78c-4.63,0-8.38,3.75-8.38,8.38h0v32.15"/>
      <path class="cls-2" d="M64.98,444.84h-11.16c-4.95,0-8.97,4.01-8.97,8.97v4.21"/>
      <line class="cls-2" x1="70.37" y1="372.46" x2="85.39" y2="372.46"/>
      <line class="cls-2" x1="96.64" y1="372.46" x2="103.4" y2="372.46"/>
      <line class="cls-2" x1="124.41" y1="394.22" x2="96.64" y2="394.22"/>
      <line class="cls-2" x1="41.86" y1="394.22" x2="34.35" y2="394.22"/>
      <line class="cls-2" x1="529.69" y1="440.76" x2="546.2" y2="440.76"/>
      <line class="cls-2" x1="566.47" y1="440.76" x2="575.47" y2="440.76"/>
      <path class="cls-4" d="M338.36,303.47v21.09l-54.58,24.38c-.02-.33-.02-.68-.02-1.01v-44.46h-16.26v44.46c0,9.24,2.94,18.39,8.27,25.75,2.08,2.87,4.49,5.45,7.18,7.69,1.73,1.42,8.04,5.35,13.58,8.25,5.64,2.97,11.22,5.25,11.45,5.35l2.95,1.2,2.99-1.12c.23-.08,5.61-2.13,11.87-5.74,4.92-2.84,16.09-9.97,19.26-13.93,4.08-5.07,7-11.16,8.47-17.59.73-3.22,1.11-6.54,1.11-9.85v-44.46h-16.27ZM338.36,347.93c0,2.11-.23,4.21-.69,6.26-.91,3.99-2.71,7.76-5.2,10.89-1.3,1.32-7.92,6.17-14.8,10.13-2.49,1.45-4.84,2.59-6.57,3.38-1.9-.86-4.46-2.05-6.98-3.37-5.23-2.74-10.12-5.91-10.78-6.39-1.4-1.17-2.69-2.49-3.81-3.96l48.84-21.8v4.85Z"/>
    </g>
  </g>
</svg>