<svg xmlns="http://www.w3.org/2000/svg" width="522.503" height="555.955" viewBox="0 0 522.503 555.955">
  <path id="Path_134" data-name="Path 134" d="M741.81,58.014V184.5L414.488,330.7c-.1-1.98-.1-4.06-.1-6.04V58.014H316.9V324.658c0,55.429,17.617,110.262,49.589,154.4a254.061,254.061,0,0,0,43.05,46.131c10.393,8.508,48.2,32.066,81.46,49.484,33.851,17.818,67.307,31.477,68.692,32.072l17.719,7.224,17.912-6.729a529.19,529.19,0,0,0,71.168-34.446c29.5-17.023,96.5-59.783,115.506-83.535A262.218,262.218,0,0,0,832.77,383.746a269.092,269.092,0,0,0,6.634-59.088V58.014Zm0,266.644a170.275,170.275,0,0,1-4.154,37.511A163.837,163.837,0,0,1,706.474,427.5c-7.819,7.919-47.509,37.021-88.785,60.773-14.943,8.708-29,15.538-39.39,20.293-11.384-5.15-26.722-12.273-41.87-20.193-31.372-16.434-60.673-35.436-64.633-38.306a148.736,148.736,0,0,1-22.862-23.758L741.81,295.561Z" transform="translate(-316.9 -58.014)" fill="#bc2028"/>
</svg>
