<svg xmlns="http://www.w3.org/2000/svg" width="198.238" height="30.761" viewBox="0 0 198.238 30.761">
  <g id="Group_5" data-name="Group 5" transform="translate(0 -11.015)">
    <g id="Group_4" data-name="Group 4" transform="translate(0 11.015)">
      <g id="Group_6" data-name="Group 6">
        <path id="Path_14" data-name="Path 14" d="M7.763,85.342a14.581,14.581,0,0,1-5.7-5.466,15.968,15.968,0,0,1,.021-15.738,14.733,14.733,0,0,1,5.721-5.466,16.767,16.767,0,0,1,8.145-1.978,17,17,0,0,1,6.678,1.276,13.617,13.617,0,0,1,5.1,3.7l-3.572,3.36a10.422,10.422,0,0,0-7.954-3.488,11.153,11.153,0,0,0-5.487,1.34,9.655,9.655,0,0,0-3.786,3.722,11.4,11.4,0,0,0,0,10.8,9.649,9.649,0,0,0,3.786,3.722,11.153,11.153,0,0,0,5.487,1.34,10.363,10.363,0,0,0,7.954-3.53l3.572,3.4a13.6,13.6,0,0,1-5.125,3.7,17.153,17.153,0,0,1-6.7,1.276,16.767,16.767,0,0,1-8.145-1.978" transform="translate(0 -56.695)" fill="#282828"/>
        <path id="Path_15" data-name="Path 15" d="M102.015,85.342a14.645,14.645,0,0,1-5.742-5.487,15.818,15.818,0,0,1,0-15.7,14.643,14.643,0,0,1,5.742-5.487,18.026,18.026,0,0,1,16.418,0,14.7,14.7,0,0,1,5.742,5.466,15.9,15.9,0,0,1,0,15.738,14.7,14.7,0,0,1-5.742,5.466,18.026,18.026,0,0,1-16.418,0m13.568-4.211a9.7,9.7,0,0,0,3.743-3.743,11.317,11.317,0,0,0,0-10.761,9.7,9.7,0,0,0-3.743-3.743,11.386,11.386,0,0,0-10.719,0,9.687,9.687,0,0,0-3.743,3.743,11.317,11.317,0,0,0,0,10.761,9.687,9.687,0,0,0,3.743,3.743,11.389,11.389,0,0,0,10.719,0" transform="translate(-63.905 -56.695)" fill="#282828"/>
        <path id="Path_16" data-name="Path 16" d="M238.646,58.018V87.792h-4.551L217.676,67.631V87.792h-5.487V58.018h4.551l16.418,20.161V58.018Z" transform="translate(-143.965 -57.593)" fill="#282828"/>
        <path id="Path_17" data-name="Path 17" d="M430.384,85.342a14.581,14.581,0,0,1-5.7-5.466,15.97,15.97,0,0,1,.021-15.738,14.731,14.731,0,0,1,5.721-5.466,16.767,16.767,0,0,1,8.145-1.978,17,17,0,0,1,6.678,1.276,13.623,13.623,0,0,1,5.1,3.7l-3.573,3.36a10.421,10.421,0,0,0-7.954-3.488,11.152,11.152,0,0,0-5.487,1.34,9.649,9.649,0,0,0-3.785,3.722,11.4,11.4,0,0,0,0,10.8,9.643,9.643,0,0,0,3.785,3.722,11.152,11.152,0,0,0,5.487,1.34,10.362,10.362,0,0,0,7.954-3.53l3.573,3.4a13.6,13.6,0,0,1-5.125,3.7,17.153,17.153,0,0,1-6.7,1.276,16.767,16.767,0,0,1-8.145-1.978" transform="translate(-286.738 -56.695)" fill="#282828"/>
        <path id="Path_18" data-name="Path 18" d="M524.637,85.342a14.648,14.648,0,0,1-5.742-5.487,15.818,15.818,0,0,1,0-15.7,14.645,14.645,0,0,1,5.742-5.487,18.027,18.027,0,0,1,16.418,0,14.7,14.7,0,0,1,5.742,5.466,15.9,15.9,0,0,1,0,15.738,14.7,14.7,0,0,1-5.742,5.466,18.027,18.027,0,0,1-16.418,0m13.568-4.211a9.693,9.693,0,0,0,3.743-3.743,11.314,11.314,0,0,0,0-10.761,9.693,9.693,0,0,0-3.743-3.743,11.386,11.386,0,0,0-10.718,0,9.688,9.688,0,0,0-3.743,3.743,11.317,11.317,0,0,0,0,10.761,9.688,9.688,0,0,0,3.743,3.743,11.388,11.388,0,0,0,10.718,0" transform="translate(-350.643 -56.695)" fill="#282828"/>
        <path id="Path_19" data-name="Path 19" d="M340.086,58.014v6.9l-17.861,7.977c-.005-.108-.005-.222-.005-.33V58.014H316.9v14.55a14.46,14.46,0,0,0,2.706,8.425,13.863,13.863,0,0,0,2.349,2.517,37.469,37.469,0,0,0,4.445,2.7c1.847.972,3.673,1.718,3.748,1.75l.967.394.977-.367a28.875,28.875,0,0,0,3.883-1.88c1.61-.929,5.266-3.262,6.3-4.558a14.309,14.309,0,0,0,2.771-5.758,14.683,14.683,0,0,0,.362-3.224V58.014Zm0,14.55a9.291,9.291,0,0,1-.227,2.047,8.94,8.94,0,0,1-1.7,3.565,33.823,33.823,0,0,1-4.845,3.316c-.815.475-1.582.848-2.149,1.107-.621-.281-1.458-.67-2.285-1.1a40.4,40.4,0,0,1-3.527-2.09,8.116,8.116,0,0,1-1.248-1.3l15.981-7.134Z" transform="translate(-215.009 -57.59)" fill="#bc2028"/>
      </g>
    </g>
  </g>
</svg>
