<svg id="Group_349" data-name="Group 349" xmlns="http://www.w3.org/2000/svg" xmlns:xlink="http://www.w3.org/1999/xlink" width="213.941" height="52.87" viewBox="0 0 213.941 52.87">
  <defs>
    <clipPath id="clip-path">
      <rect id="Rectangle_5" data-name="Rectangle 5" width="213.941" height="52.87" fill="none"/>
    </clipPath>
  </defs>
  <path id="Path_1" data-name="Path 1" d="M98.111,1.488,99.73,5.571H96.493ZM97.586.274l-3.4,8.332h1.1l.825-2.083H100.1l.825,2.083h1.126L98.647.274Z" transform="translate(-61.506 -0.179)" fill="#bc2028"/>
  <g id="Group_4" data-name="Group 4">
    <g id="Group_3" data-name="Group 3" clip-path="url(#clip-path)">
      <path id="Path_2" data-name="Path 2" d="M130.606,4.214h1.029v3.25a3.892,3.892,0,0,1-1.3.785,4.4,4.4,0,0,1-1.543.274,3.857,3.857,0,0,1-3.478-2.077,4.549,4.549,0,0,1-.52-2.184,4.583,4.583,0,0,1,.52-2.19A3.834,3.834,0,0,1,126.753.548a4.2,4.2,0,0,1,3.7-.22,3.349,3.349,0,0,1,1.249.958l-.664.738a2.869,2.869,0,0,0-2.176-.964,2.922,2.922,0,0,0-1.538.41,2.862,2.862,0,0,0-1.066,1.143,3.48,3.48,0,0,0-.386,1.649,3.453,3.453,0,0,0,.386,1.637,2.9,2.9,0,0,0,1.066,1.149,2.866,2.866,0,0,0,1.527.417,2.948,2.948,0,0,0,1.758-.536Z" transform="translate(-81.493)" fill="#bc2028"/>
      <path id="Path_3" data-name="Path 3" d="M162.641,7.571V8.607H157.2V.275h5.295V1.31h-4.223V3.869h3.762V4.881h-3.762v2.69Z" transform="translate(-102.65 -0.179)" fill="#bc2028"/>
      <path id="Path_4" data-name="Path 4" d="M191.139.274V8.607h-.879l-4.5-6.214V8.607h-1.072V.274h.879l4.5,6.214V.274Z" transform="translate(-120.602 -0.179)" fill="#bc2028"/>
      <path id="Path_5" data-name="Path 5" d="M216.735,7.968a3.876,3.876,0,0,1-1.42-1.524A4.588,4.588,0,0,1,214.8,4.26a4.592,4.592,0,0,1,.514-2.184,3.972,3.972,0,0,1,5.07-1.75,3.321,3.321,0,0,1,1.243.971l-.7.75a2.669,2.669,0,0,0-2.111-.988,2.822,2.822,0,0,0-1.511.417,2.883,2.883,0,0,0-1.056,1.149,3.5,3.5,0,0,0-.381,1.637,3.494,3.494,0,0,0,.381,1.636,2.877,2.877,0,0,0,1.056,1.149,2.819,2.819,0,0,0,1.511.417,2.676,2.676,0,0,0,2.111-1l.7.75a3.359,3.359,0,0,1-1.249.976,4.031,4.031,0,0,1-3.644-.22" transform="translate(-140.266 0.001)" fill="#bc2028"/>
      <rect id="Rectangle_3" data-name="Rectangle 3" width="1.072" height="8.332" transform="translate(85.252 0.095)" fill="#bc2028"/>
      <path id="Path_6" data-name="Path 6" d="M264.7,6.523h-3.987l-.826,2.083h-1.1l3.4-8.332h1.061l3.408,8.332h-1.126Zm-.375-.952-1.618-4.083-1.618,4.083Z" transform="translate(-168.988 -0.179)" fill="#bc2028"/>
      <path id="Path_7" data-name="Path 7" d="M306.739,7.968a3.877,3.877,0,0,1-1.42-1.524A4.589,4.589,0,0,1,304.8,4.26a4.592,4.592,0,0,1,.514-2.184,3.972,3.972,0,0,1,5.07-1.75,3.321,3.321,0,0,1,1.243.971l-.7.75a2.668,2.668,0,0,0-2.111-.988,2.822,2.822,0,0,0-1.511.417,2.883,2.883,0,0,0-1.056,1.149,3.5,3.5,0,0,0-.38,1.637,3.494,3.494,0,0,0,.38,1.636,2.877,2.877,0,0,0,1.056,1.149,2.819,2.819,0,0,0,1.511.417,2.676,2.676,0,0,0,2.111-1l.7.75a3.36,3.36,0,0,1-1.249.976,4.031,4.031,0,0,1-3.644-.22" transform="translate(-199.04 0.001)" fill="#bc2028"/>
      <path id="Path_8" data-name="Path 8" d="M340.707,8.607l-1.618-2.559c-.2.016-.357.024-.472.024h-1.854V8.607h-1.072V.275h2.926a3.245,3.245,0,0,1,2.294.773,2.76,2.76,0,0,1,.836,2.131,3.014,3.014,0,0,1-.429,1.643,2.456,2.456,0,0,1-1.222.988l1.779,2.8Zm-.568-4.035a1.787,1.787,0,0,0,.536-1.392,1.769,1.769,0,0,0-.536-1.387,2.25,2.25,0,0,0-1.554-.482h-1.822V5.06h1.822a2.231,2.231,0,0,0,1.554-.488" transform="translate(-219.208 -0.18)" fill="#bc2028"/>
      <path id="Path_9" data-name="Path 9" d="M370.384,7.571V8.607H364.94V.275h5.295V1.31h-4.223V3.869h3.762V4.881h-3.762v2.69Z" transform="translate(-238.308 -0.179)" fill="#bc2028"/>
      <path id="Path_10" data-name="Path 10" d="M395.072,6.523h-3.987l-.826,2.083h-1.1l3.4-8.332h1.061l3.408,8.332H395.9Zm-.375-.952-1.618-4.083L391.46,5.571Z" transform="translate(-254.121 -0.179)" fill="#bc2028"/>
      <path id="Path_11" data-name="Path 11" d="M420.206,1.31h-2.572V.275h6.206V1.31h-2.573v7.3h-1.061Z" transform="translate(-272.717 -0.179)" fill="#bc2028"/>
      <rect id="Rectangle_4" data-name="Rectangle 4" width="1.072" height="8.332" transform="translate(154.648 0.095)" fill="#bc2028"/>
      <path id="Path_12" data-name="Path 12" d="M466.211.274,462.92,8.607h-1.061l-3.3-8.332h1.158l2.7,6.844L465.138.274Z" transform="translate(-299.441 -0.179)" fill="#bc2028"/>
      <path id="Path_13" data-name="Path 13" d="M492.119,6.523h-3.987l-.826,2.083h-1.1L489.6.274h1.061l3.408,8.332h-1.126Zm-.375-.952-1.618-4.083-1.618,4.083Z" transform="translate(-317.494 -0.179)" fill="#bc2028"/>
      <path id="Path_14" data-name="Path 14" d="M8.377,87.611a15.735,15.735,0,0,1-6.151-5.9,17.232,17.232,0,0,1,.023-16.984,15.9,15.9,0,0,1,6.174-5.9,18.1,18.1,0,0,1,8.79-2.135,18.344,18.344,0,0,1,7.207,1.377,14.7,14.7,0,0,1,5.508,3.994l-3.855,3.626a11.247,11.247,0,0,0-8.584-3.765,12.037,12.037,0,0,0-5.921,1.446A10.42,10.42,0,0,0,7.482,67.39a12.3,12.3,0,0,0,0,11.66,10.413,10.413,0,0,0,4.086,4.016,12.036,12.036,0,0,0,5.921,1.446,11.184,11.184,0,0,0,8.584-3.81l3.855,3.673A14.674,14.674,0,0,1,24.4,88.369a18.512,18.512,0,0,1-7.23,1.377,18.1,18.1,0,0,1-8.79-2.134" transform="translate(0 -37.022)" fill="#fff"/>
      <path id="Path_15" data-name="Path 15" d="M102.635,87.611a15.805,15.805,0,0,1-6.2-5.921,17.07,17.07,0,0,1,0-16.939,15.8,15.8,0,0,1,6.2-5.921,19.454,19.454,0,0,1,17.719,0,15.864,15.864,0,0,1,6.2,5.9,17.157,17.157,0,0,1,0,16.985,15.864,15.864,0,0,1-6.2,5.9,19.454,19.454,0,0,1-17.719,0m14.643-4.545a10.463,10.463,0,0,0,4.039-4.039,12.213,12.213,0,0,0,0-11.614,10.463,10.463,0,0,0-4.039-4.039,12.288,12.288,0,0,0-11.568,0,10.454,10.454,0,0,0-4.039,4.039,12.213,12.213,0,0,0,0,11.614,10.454,10.454,0,0,0,4.039,4.039,12.291,12.291,0,0,0,11.568,0" transform="translate(-61.506 -37.022)" fill="#fff"/>
      <path id="Path_16" data-name="Path 16" d="M240.741,58.018V90.151H235.83L218.111,68.392V90.151h-5.922V58.018H217.1L234.82,79.776V58.018Z" transform="translate(-138.561 -37.886)" fill="#fff"/>
      <path id="Path_17" data-name="Path 17" d="M431,87.611a15.736,15.736,0,0,1-6.151-5.9,17.235,17.235,0,0,1,.023-16.984,15.9,15.9,0,0,1,6.174-5.9,18.1,18.1,0,0,1,8.79-2.135,18.344,18.344,0,0,1,7.207,1.377,14.7,14.7,0,0,1,5.509,3.994l-3.856,3.626a11.246,11.246,0,0,0-8.584-3.765,12.036,12.036,0,0,0-5.921,1.446A10.414,10.414,0,0,0,430.1,67.39a12.3,12.3,0,0,0,0,11.66,10.407,10.407,0,0,0,4.085,4.016,12.035,12.035,0,0,0,5.921,1.446,11.182,11.182,0,0,0,8.584-3.81l3.856,3.673a14.68,14.68,0,0,1-5.531,3.994,18.512,18.512,0,0,1-7.23,1.377A18.1,18.1,0,0,1,431,87.611" transform="translate(-275.975 -37.022)" fill="#fff"/>
      <path id="Path_18" data-name="Path 18" d="M525.257,87.611a15.807,15.807,0,0,1-6.2-5.921,17.07,17.07,0,0,1,0-16.939,15.8,15.8,0,0,1,6.2-5.921,19.454,19.454,0,0,1,17.719,0,15.865,15.865,0,0,1,6.2,5.9,17.159,17.159,0,0,1,0,16.985,15.865,15.865,0,0,1-6.2,5.9,19.454,19.454,0,0,1-17.719,0M539.9,83.067a10.461,10.461,0,0,0,4.039-4.039,12.211,12.211,0,0,0,0-11.614,10.461,10.461,0,0,0-4.039-4.039,12.288,12.288,0,0,0-11.567,0,10.454,10.454,0,0,0-4.04,4.039,12.212,12.212,0,0,0,0,11.614,10.455,10.455,0,0,0,4.04,4.039,12.291,12.291,0,0,0,11.567,0" transform="translate(-337.481 -37.022)" fill="#fff"/>
      <path id="Path_19" data-name="Path 19" d="M341.923,58.014v7.449l-19.276,8.609c-.006-.117-.006-.239-.006-.356v-15.7H316.9v15.7a15.606,15.606,0,0,0,2.92,9.093,14.962,14.962,0,0,0,2.535,2.717,40.44,40.44,0,0,0,4.8,2.914c1.993,1.049,3.964,1.854,4.045,1.889l1.043.425,1.055-.4a31.164,31.164,0,0,0,4.191-2.029c1.737-1,5.683-3.521,6.8-4.919a15.441,15.441,0,0,0,2.99-6.214,15.843,15.843,0,0,0,.391-3.48v-15.7Zm0,15.7a10.028,10.028,0,0,1-.245,2.209,9.649,9.649,0,0,1-1.836,3.847,36.5,36.5,0,0,1-5.228,3.579c-.88.513-1.708.915-2.32,1.2-.67-.3-1.574-.723-2.466-1.189a43.607,43.607,0,0,1-3.806-2.256,8.757,8.757,0,0,1-1.346-1.4L341.923,72Z" transform="translate(-206.938 -37.884)" fill="#bc2028"/>
    </g>
  </g>
</svg>
